<svg width="66" height="66" viewBox="0 0 66 66" fill="none" xmlns="http://www.w3.org/2000/svg">
<g clip-path="url(#clip0_1_33)">
<mask id="mask0_1_33" style="mask-type:luminance" maskUnits="userSpaceOnUse" x="0" y="0" width="66" height="66">
<path d="M66 0H0V66H66V0Z" fill="white"/>
</mask>
<g mask="url(#mask0_1_33)">
<path d="M43.6698 6.97705C43.4744 6.97705 43.2854 6.9502 43.1094 6.89648C42.1842 6.89648 41.4284 6.27344 41.4284 5.51075V2.77148H25.0734V5.51075C25.0734 6.23047 24.4088 6.82129 23.5551 6.89111C23.3727 6.94482 23.1772 6.97705 22.9752 6.97705H16.8241V12.6328H49.1172V6.97705H43.6698ZM45.983 65.6348C45.6832 65.8604 45.2858 66 44.8493 66C44.758 66 44.6733 65.9947 44.5886 65.9839H3.74015V65.9893C2.72367 65.9893 1.78537 65.6401 1.1012 65.0816V65.0762H1.09468L1.08816 65.0708C0.41702 64.5122 0 63.7442 0 62.9063V10.8711C0 10.0224 0.423536 9.24905 1.1012 8.69042C1.77885 8.13183 2.71715 7.78271 3.74667 7.78271H13.4684V6.26806C13.4684 5.7041 13.7486 5.18848 14.2047 4.8125L14.2112 4.80713L14.2177 4.80175C14.6739 4.43116 15.2994 4.2002 15.9837 4.2002H21.7241V2.29346C21.7241 1.66504 22.0369 1.0957 22.5387 0.676758L22.5452 0.671387C23.0404 0.257813 23.731 0 24.4934 0H42.0148C42.7772 0 43.4679 0.257813 43.9761 0.676758L43.9826 0.671387C44.4843 1.08496 44.7971 1.65967 44.7971 2.29346V4.20556H49.9708C50.655 4.20556 51.2805 4.43652 51.7366 4.8125L51.7431 4.81787L51.7497 4.82324L51.7562 4.82861C52.2058 5.20459 52.4859 5.72021 52.4859 6.28418V7.79883H62.2077C63.2307 7.79883 64.169 8.14795 64.8466 8.7065L64.8531 8.70117C65.5309 9.2598 65.9544 10.0332 65.9544 10.8819V48.039C65.987 48.1518 66.0065 48.2646 66.0065 48.3828C66.0065 48.8018 65.785 49.1724 65.4266 49.4302L46.1264 65.5434C46.0808 65.5703 46.0286 65.6026 45.983 65.6348ZM43.1681 63.2232V51.1704C43.1681 50.021 43.7415 48.9736 44.6602 48.2163C45.579 47.459 46.8497 46.9863 48.244 46.9863H62.5856V10.8711C62.5856 10.7852 62.5401 10.7099 62.4749 10.6509L62.4814 10.6455H62.4749C62.4097 10.5918 62.3119 10.5596 62.2077 10.5596H52.4859V13.3364C52.4859 13.9004 52.2057 14.416 51.7497 14.792H51.7431L51.7366 14.7974L51.7301 14.8027C51.274 15.1733 50.6484 15.4043 49.9643 15.4043H15.9771C15.2864 15.4043 14.6544 15.1733 14.2047 14.7974C14.1527 14.7544 14.1005 14.7061 14.0614 14.6578C13.6965 14.2979 13.4684 13.8306 13.4684 13.3311V10.5542H3.74015C3.6359 10.5542 3.54467 10.5918 3.473 10.6455C3.40132 10.7046 3.36223 10.7797 3.36223 10.8657V62.8955C3.36223 62.9814 3.40132 63.062 3.473 63.1157L3.47951 63.1211C3.54467 63.1748 3.64242 63.2124 3.74667 63.2124V63.2178L43.1681 63.2232ZM46.5303 51.1704V61.2573L60.305 49.7578H48.2375C47.7684 49.7578 47.3383 49.9189 47.0321 50.1714C46.7193 50.4292 46.5303 50.7837 46.5303 51.1704ZM13.8594 45.4663C12.9276 45.4663 12.1783 44.8433 12.1783 44.0806C12.1783 43.3125 12.9341 42.6948 13.8594 42.6948H43.4418C44.3671 42.6948 45.123 43.3178 45.123 44.0806C45.123 44.8433 44.3671 45.4663 43.4418 45.4663H13.8594ZM13.8594 26.8985C12.9276 26.8985 12.1783 26.2754 12.1783 25.5127C12.1783 24.75 12.9341 24.127 13.8594 24.127H52.0884C53.0203 24.127 53.7696 24.75 53.7696 25.5127C53.7696 26.2754 53.0137 26.8985 52.0884 26.8985H13.8594ZM13.8594 36.1797C12.9276 36.1797 12.1783 35.5567 12.1783 34.7939C12.1783 34.0313 12.9341 33.4082 13.8594 33.4082H52.0884C53.0203 33.4082 53.7696 34.0313 53.7696 34.7939C53.7696 35.562 53.0137 36.1797 52.0884 36.1797H13.8594Z" fill="#F5F5F5"/>
</g>
</g>
<defs>
<clipPath id="clip0_1_33">
<rect width="66" height="66" fill="white"/>
</clipPath>
</defs>
</svg>
