<svg width="66" height="66" viewBox="0 0 66 66" fill="none" xmlns="http://www.w3.org/2000/svg">
<mask id="mask0_1_20" style="mask-type:luminance" maskUnits="userSpaceOnUse" x="0" y="0" width="66" height="66">
<path d="M65.953 0H0V66H65.953V0Z" fill="white"/>
</mask>
<g mask="url(#mask0_1_20)">
<path d="M31.6132 0C38.4189 0 44.7255 2.24688 49.8834 6.06826L47.8761 8.28152C43.2495 4.95883 37.646 3.01452 31.6132 3.01452C23.6804 3.01452 16.499 6.37083 11.3035 11.7947C6.10259 17.2242 2.88759 24.7212 2.88759 33.0028C2.88759 41.2843 6.10259 48.7814 11.2981 54.2053C16.4936 59.6291 23.675 62.9855 31.6079 62.9855C39.5407 62.9855 46.7221 59.6291 51.9176 54.2053C55.4385 50.5296 58.047 45.9013 59.3674 40.7296C58.0578 39.9395 57.1775 38.4603 57.1775 36.7626C57.1775 34.6838 58.5086 32.9243 60.3281 32.3696C60.1993 25.8531 58.0792 19.8521 54.5744 14.9941L56.5871 12.7752C60.6555 18.244 63.1137 25.0855 63.2157 32.521C64.8205 33.2045 65.9477 34.8462 65.9477 36.7626C65.9477 39.0599 64.3267 40.9649 62.212 41.2899C60.779 47.0724 57.8806 52.2441 53.9572 56.3401C48.2357 62.3131 40.335 66.0056 31.6025 66.0056C22.8753 66.0056 14.9693 62.3131 9.24781 56.3401C3.53703 50.3671 0 42.1136 0 33.0028C0 23.892 3.53703 15.6386 9.25854 9.6655C14.9801 3.6925 22.8807 0 31.6132 0ZM31.6132 27.2315C32.5632 27.2315 33.4596 27.4837 34.2432 27.9263C34.2808 27.8703 34.3237 27.8199 34.3666 27.7751L52.4758 7.88929C53.0233 7.28975 53.9357 7.26173 54.51 7.83887C55.0843 8.41039 55.1111 9.36294 54.5583 9.96245L36.4545 29.8426C36.4116 29.8875 36.3686 29.9323 36.3203 29.9715C36.8409 30.8512 37.1415 31.8877 37.1415 32.9972C37.1415 36.1854 34.6672 38.7685 31.6132 38.7685C28.5592 38.7685 26.0849 36.1854 26.0849 32.9972C26.0849 29.8146 28.5592 27.2315 31.6132 27.2315ZM33.5293 50.9442C35.1503 50.9442 36.5672 51.8632 37.3294 53.2303C40.6088 52.2218 43.5393 50.3671 45.8955 47.9129C49.5506 44.0972 51.8103 38.8245 51.8103 33.0028C51.8103 28.7948 50.6295 24.8725 48.5953 21.5835L50.6563 19.3142C53.2272 23.2028 54.7354 27.9208 54.7354 33.0028C54.7354 39.665 52.1484 45.6997 47.9619 50.0702C45.1978 52.9557 41.7359 55.1129 37.8661 56.2448C37.5333 58.4301 35.7246 60.1054 33.5347 60.1054C31.6132 60.1054 29.9869 58.8167 29.3912 57.0293C23.8951 56.4801 18.9626 53.9251 15.2699 50.0702C11.0888 45.7052 8.49639 39.6706 8.49639 33.0028C8.49639 27.5285 10.2408 22.4856 13.182 18.4345C12.9244 17.8518 12.7848 17.2074 12.7848 16.5238C12.7848 13.9967 14.7493 11.946 17.1699 11.946C17.9589 11.946 18.7049 12.1645 19.3436 12.5455C22.9021 10.2146 27.1047 8.86985 31.6132 8.86985C36.1539 8.86985 40.3833 10.237 43.9579 12.596L41.9023 14.8597C38.8912 12.9938 35.3703 11.9236 31.6132 11.9236C27.8347 11.9236 24.2923 13.0106 21.2651 14.8932C21.453 15.4032 21.555 15.9523 21.555 16.5295C21.555 19.0565 19.5905 21.1072 17.1699 21.1072C16.4829 21.1072 15.8281 20.9391 15.2484 20.6478C12.8385 24.1217 11.4162 28.3913 11.4162 33.0084C11.4162 38.8302 13.6758 44.1027 17.3309 47.9185C20.4976 51.2244 24.7109 53.4376 29.4073 53.97C30.0191 52.1993 31.6347 50.9442 33.5293 50.9442ZM31.6132 17.6949C33.8836 17.6949 36.0359 18.2327 37.9573 19.1965L36.009 21.3425C35.9446 21.4098 35.8856 21.4826 35.8265 21.5555C34.5169 21.0288 33.1 20.743 31.6132 20.743C28.3714 20.743 25.4355 22.1158 23.3101 24.3347C21.1846 26.5536 19.8696 29.6184 19.8696 33.0028C19.8696 36.3871 21.1846 39.452 23.3101 41.6709C25.4355 43.8898 28.3714 45.2626 31.6132 45.2626C34.8551 45.2626 37.791 43.8898 39.9164 41.6709C42.0418 39.452 43.3568 36.3871 43.3568 33.0028C43.3568 31.3387 43.0401 29.7585 42.4658 28.3129C42.5625 28.2233 42.6537 28.1336 42.7449 28.0328L44.6342 25.954C45.6862 28.0663 46.282 30.4645 46.282 33.0028C46.282 37.2276 44.6396 41.0546 41.9882 43.8225C39.3367 46.5906 35.6709 48.3051 31.624 48.3051C27.577 48.3051 23.9112 46.5906 21.2598 43.8225C18.6083 41.0546 16.9659 37.2276 16.9659 33.0028C16.9659 28.778 18.6083 24.9511 21.2598 22.183C23.9005 19.4094 27.5609 17.6949 31.6132 17.6949Z" fill="#F5F5F5"/>
</g>
</svg>
