<svg width="66" height="66" viewBox="0 0 66 66" fill="none" xmlns="http://www.w3.org/2000/svg">
<g clip-path="url(#clip0_1_21)">
<mask id="mask0_1_21" style="mask-type:luminance" maskUnits="userSpaceOnUse" x="0" y="0" width="66" height="66">
<path d="M66 0H0V66H66V0Z" fill="white"/>
</mask>
<g mask="url(#mask0_1_21)">
<path fill-rule="evenodd" clip-rule="evenodd" d="M37.3364 1.30139C38.9362 2.33403 40.3996 3.99094 41.595 6.27414L41.7201 6.53237L41.8642 6.80883L64.3164 49.8918C68.662 57.9261 64.1612 66.097 55.7861 65.9829V66H9.47267C9.35731 66 9.24326 65.9943 9.13018 65.9841C1.5113 65.8702 -1.99148 58.1509 1.14971 50.7649C1.25825 50.5078 1.38381 50.2699 1.51271 50.024L24.4255 6.26118L24.4186 6.25662C25.6071 4.00818 27.0892 2.34585 28.7255 1.29926C31.4259 -0.427314 34.6386 -0.439563 37.3364 1.30139ZM32.9614 48.3136C34.6423 48.3136 36.0051 49.8192 36.0051 51.6766C36.0051 53.5342 34.6423 55.0399 32.9614 55.0399C31.2803 55.0399 29.9175 53.5342 29.9175 51.6766C29.9175 49.8192 31.2803 48.3136 32.9614 48.3136ZM35.2352 43.2745C35.1329 46.1097 30.7872 46.1132 30.6876 43.2736C30.2481 38.4155 29.1241 27.3865 29.1597 22.8215C29.1963 21.4152 30.2514 20.5819 31.6011 20.2641C32.0176 20.1665 32.4752 20.1184 32.9361 20.119C33.3995 20.1202 33.8582 20.1706 34.275 20.2687C35.6696 20.5968 36.7641 21.464 36.7641 22.896L36.7586 23.0391L35.2352 43.2745ZM4.84636 52.6746L27.9551 8.53768C30.7573 3.23762 35.2029 3.08408 38.0583 8.53768L60.7843 52.1457C62.9985 56.1744 62.0785 61.5798 55.7861 61.4734H9.47267C5.21659 61.581 2.66115 57.8136 4.84636 52.6746Z" fill="#F5F5F5"/>
</g>
</g>
<defs>
<clipPath id="clip0_1_21">
<rect width="66" height="66" fill="white"/>
</clipPath>
</defs>
</svg>
