<svg width="66" height="66" viewBox="0 0 66 66" fill="none" xmlns="http://www.w3.org/2000/svg">
<g clip-path="url(#clip0_1_9)">
<mask id="mask0_1_9" style="mask-type:luminance" maskUnits="userSpaceOnUse" x="0" y="0" width="66" height="66">
<path d="M66 0H0V66H66V0Z" fill="white"/>
</mask>
<g mask="url(#mask0_1_9)">
<path d="M2.97644 0H63.0235C64.6568 0 66 2.04302 66 4.52718V61.4728C66 63.957 64.6568 66 63.0235 66H2.97644C1.3432 66 0 63.957 0 61.4728V4.52718C0 2.04302 1.3432 0 2.97644 0ZM31.4466 35.3234C29.6742 35.3234 29.6742 30.4021 31.4466 30.4021H58.12C59.8925 30.4021 59.8898 35.3234 58.12 35.3234H31.4466ZM51.19 45.3797C49.4188 45.3797 49.4188 40.4584 51.19 40.4584H58.12C59.8911 40.4584 59.8911 45.3797 58.12 45.3797H51.19ZM31.4466 45.3797C29.6742 45.3797 29.6742 40.4584 31.4466 40.4584H46.0479C47.8191 40.4584 47.8191 45.3797 46.0479 45.3797H31.4466ZM31.448 55.4555C29.6742 55.4555 29.6755 50.5362 31.448 50.5362H58.1483C59.9195 50.5362 59.9195 55.4555 58.1483 55.4555H31.448ZM7.33476 9.80922H47.1384C47.7095 9.80922 48.1774 10.5229 48.1774 11.3915V19.7851C48.1774 20.6517 47.7082 21.3654 47.1384 21.3654H7.33476C6.76369 21.3654 6.29449 20.6556 6.29449 19.7851V11.3915C6.29449 10.5209 6.76245 9.80922 7.33476 9.80922ZM52.6788 9.80922H58.6652C59.2375 9.80922 59.7055 10.5229 59.7055 11.3915V19.7851C59.7055 20.6517 59.2363 21.3654 58.6652 21.3654H52.6788C52.1078 21.3654 51.6385 20.6556 51.6385 19.7851V11.3915C51.6385 10.5209 52.1065 9.80922 52.6788 9.80922ZM6.79591 55.4555C6.48527 55.4555 6.48141 54.9752 6.53681 54.6399C7.00345 49.0147 8.43304 49.2128 10.4839 48.4089C11.4701 48.0226 13.7221 46.5188 13.4836 44.5797C12.9873 43.8797 12.4936 42.9131 12.4072 41.4681L12.3479 41.4701C12.21 41.4662 12.0772 41.4191 11.9534 41.3113C11.6789 41.074 11.5294 40.6211 11.4559 40.1015C11.385 39.5898 11.367 38.5918 11.4559 38.0801C11.5513 37.6742 11.6699 37.4546 11.8207 37.3586L11.8246 37.3566C11.7562 35.4038 11.9728 33.3255 10.6554 32.7177C13.258 27.8258 16.2576 25.1652 18.5109 29.5179C21.0207 29.7178 22.1397 34.3313 20.5812 37.3586H20.5154C20.7243 37.4919 20.8403 37.8605 20.897 38.1762C20.9408 38.6663 20.9717 39.4467 20.8789 40.1015C20.808 40.6211 20.6572 41.074 20.3826 41.3113C20.2589 41.4191 20.1261 41.4662 19.9882 41.4701L19.9276 41.4681C19.8425 42.9131 19.3475 43.8797 18.8512 44.5797C18.6128 46.5208 20.8674 48.0226 21.8535 48.4089C23.9057 49.2108 25.3365 49.0147 25.8032 54.6399C25.8573 54.9752 25.8534 55.4555 25.5428 55.4555H6.79591ZM63.0235 3.22138H2.97644C2.50078 3.22138 2.11793 3.8037 2.11793 4.52718V61.4728C2.11793 62.1963 2.50078 62.7786 2.97644 62.7786H63.0235C63.4992 62.7786 63.8821 62.1963 63.8821 61.4728V4.52718C63.8821 3.8037 63.4992 3.22138 63.0235 3.22138Z" fill="#F5F5F5"/>
</g>
</g>
<defs>
<clipPath id="clip0_1_9">
<rect width="66" height="66" fill="white"/>
</clipPath>
</defs>
</svg>
