<svg width="66" height="66" viewBox="0 0 66 66" fill="none" xmlns="http://www.w3.org/2000/svg">
<mask id="mask0_1_44" style="mask-type:luminance" maskUnits="userSpaceOnUse" x="0" y="0" width="66" height="66">
<path d="M65.6422 0.272888H0.530792V65.2637H65.6422V0.272888Z" fill="white"/>
</mask>
<g mask="url(#mask0_1_44)">
<path fill-rule="evenodd" clip-rule="evenodd" d="M65.5695 37.1688C66.3749 52.4592 60.4018 61.498 49.8147 65.2637C39.591 61.7307 33.5283 53.0938 33.9981 36.9361C39.671 37.3354 45.2946 35.698 49.7475 32.3505C54.2833 35.069 60.0663 37.6395 65.564 37.1688H65.5695ZM35.6872 6.68313L47.2643 16.9385H35.6872V6.68313ZM11.4591 30.2984C11.5807 30.1723 11.7283 30.0711 11.8928 30.0011C12.0573 29.931 12.2352 29.8936 12.4155 29.8912H35.8215C36.007 29.8917 36.1904 29.9297 36.3591 30.0027C36.5279 30.0756 36.6783 30.1819 36.8001 30.3142C37.0496 30.5908 37.1865 30.9424 37.1865 31.3059C37.1865 31.6694 37.0496 32.021 36.8001 32.2976C36.7162 32.3815 36.6224 32.456 36.5205 32.5198C36.0731 32.599 35.6257 32.6625 35.1783 32.7207H12.4379C12.2521 32.7199 12.0685 32.6823 11.8989 32.6104C11.7295 32.5384 11.5777 32.4336 11.4536 32.3029C11.1991 32.0266 11.0589 31.6724 11.0589 31.3059C11.0589 30.9394 11.1991 30.5853 11.4536 30.3089L11.4591 30.2984ZM11.4591 39.1468C11.5812 39.0142 11.7315 38.9076 11.9001 38.8338C12.0688 38.7599 12.2521 38.7207 12.4379 38.7184H28.7297C28.7801 39.6863 28.8472 40.633 28.9367 41.5586H12.4379C12.252 41.5584 12.0681 41.5211 11.8985 41.4492C11.7289 41.3771 11.5773 41.272 11.4536 41.1407C11.1991 40.8644 11.0589 40.5103 11.0589 40.1438C11.0589 39.7773 11.1991 39.4232 11.4536 39.1468H11.4591ZM11.4591 47.99C11.5822 47.8589 11.7327 47.7535 11.9013 47.6807C12.0699 47.6078 12.2526 47.5691 12.4379 47.5669H29.8595C30.072 48.5436 30.3125 49.4903 30.581 50.4071H12.4379C12.2514 50.4072 12.0669 50.3696 11.8971 50.2966C11.7273 50.2236 11.5761 50.117 11.4536 49.9839C11.1978 49.7075 11.0584 49.3516 11.0621 48.9843C11.0634 48.6185 11.2044 48.2653 11.4591 47.99ZM11.4591 21.4499C11.5812 21.3174 11.7315 21.2107 11.9001 21.1369C12.0688 21.0631 12.2521 21.0238 12.4379 21.0215H25.8607C26.0449 21.0218 26.227 21.0592 26.3949 21.1313C26.5626 21.2034 26.7123 21.3083 26.8338 21.4393C27.0909 21.7172 27.2303 22.0751 27.2253 22.4442C27.2255 22.8094 27.0865 23.1625 26.8338 23.4386C26.7114 23.569 26.5617 23.674 26.3942 23.7468C26.2267 23.8197 26.045 23.8588 25.8607 23.8617H12.4379C12.2521 23.8609 12.0685 23.8233 11.8989 23.7513C11.7295 23.6793 11.5777 23.5746 11.4536 23.4439C11.1979 23.1653 11.0586 22.8079 11.0621 22.4389C11.0572 22.0673 11.1987 21.7072 11.4591 21.4287V21.4499ZM11.4591 13.2203C11.5812 13.0877 11.7315 12.9811 11.9001 12.9072C12.0688 12.8334 12.2521 12.7941 12.4379 12.7919H19.8204C20.0032 12.7929 20.1837 12.8302 20.3504 12.9012C20.5171 12.9723 20.6661 13.0756 20.7879 13.2044C21.0425 13.4808 21.1827 13.8349 21.1827 14.2014C21.1827 14.5679 21.0425 14.922 20.7879 15.1983C20.6661 15.3293 20.5164 15.4346 20.3488 15.5075C20.1812 15.5803 19.9993 15.6192 19.8148 15.6215H12.4379C12.252 15.6213 12.0681 15.5841 11.8985 15.512C11.7289 15.44 11.5773 15.3349 11.4536 15.2036C11.1991 14.9273 11.0589 14.5732 11.0589 14.2067C11.0589 13.8402 11.1991 13.4861 11.4536 13.2097L11.4591 13.2203ZM53.7072 18.4088C53.7045 18.0139 53.5662 17.6307 53.3129 17.3168C53.0597 17.0029 52.7054 16.7754 52.3035 16.6687L35.2454 0.944606C35.0668 0.733959 34.8404 0.564149 34.5828 0.447843C34.3251 0.331538 34.0431 0.271738 33.7577 0.272905H3.99837C3.07872 0.272905 2.19674 0.618387 1.54645 1.23335C0.896164 1.84831 0.530836 2.68238 0.530836 3.55206V59.6468C0.528533 60.0784 0.617382 60.5061 0.792171 60.9049C0.966964 61.3036 1.22418 61.6653 1.54872 61.9687C2.19969 62.581 3.08023 62.9251 3.99837 62.926H37.3986C36.3461 61.7824 35.3958 60.5583 34.5574 59.2661H4.40106V3.917H31.8058V18.7843C31.8073 19.2715 32.013 19.7383 32.3778 20.0823C32.7427 20.4264 33.2368 20.6195 33.7521 20.6195H49.837V26.8711C51.1457 27.6539 52.4358 28.3679 53.7072 29.0131V18.4088ZM41.2129 47.3024L44.2386 47.2654C45.044 47.3923 46.6995 48.7886 47.2811 49.381C47.7789 48.63 48.2934 47.9106 48.8247 47.2125C49.4138 46.4368 50.0178 45.6963 50.6367 44.9912C51.3079 44.219 52.007 43.4837 52.7229 42.7803C53.3437 42.1668 54.4623 40.9292 55.2732 40.633C55.297 40.6274 55.3221 40.6274 55.3459 40.633H58.6569C58.7088 40.633 58.7585 40.6525 58.7953 40.6872C58.832 40.7219 58.8526 40.769 58.8526 40.8182C58.8529 40.843 58.8476 40.8677 58.8369 40.8905C58.8264 40.9133 58.8107 40.9338 58.7911 40.9503L58.1367 41.6221C57.1151 42.6798 56.1419 43.7676 55.2172 44.8853C54.2833 46.0014 53.394 47.1384 52.5551 48.2862C51.7161 49.4338 50.9276 50.5869 50.1782 51.7663C49.4287 52.9457 48.7128 54.1622 48.0473 55.384L47.6278 56.1456C47.603 56.1879 47.5619 56.2198 47.5131 56.2345C47.4642 56.2492 47.4112 56.2458 47.3649 56.2249C47.3271 56.2031 47.2962 56.172 47.2755 56.135L46.8951 55.3628C46.5549 54.661 46.1702 53.9792 45.7431 53.3212C45.3282 52.6778 44.8686 52.0611 44.3673 51.4754C43.8678 50.892 43.3258 50.3424 42.7453 49.8305C42.152 49.3103 41.5182 48.833 40.8494 48.4025C40.8147 48.3795 40.7888 48.3464 40.7757 48.3082C40.7625 48.27 40.7629 48.2289 40.7767 48.1909L41.0171 47.4293C41.0304 47.3903 41.0565 47.3564 41.0919 47.3325C41.1271 47.3087 41.1696 47.2963 41.2129 47.2972V47.3024Z" fill="#F5F5F5"/>
</g>
</svg>
