<svg width="66" height="66" viewBox="0 0 66 66" fill="none" xmlns="http://www.w3.org/2000/svg">
<g clip-path="url(#clip0_1_27)">
<mask id="mask0_1_27" style="mask-type:luminance" maskUnits="userSpaceOnUse" x="0" y="0" width="66" height="66">
<path d="M66 0H0V66H66V0Z" fill="white"/>
</mask>
<g mask="url(#mask0_1_27)">
<path fill-rule="evenodd" clip-rule="evenodd" d="M1.11718 19.5126H39.9609C40.5732 19.5126 41.0781 20.2017 41.0781 21.0373V56.1557C41.0781 56.9914 40.5786 57.6803 39.9609 57.6803H1.11718C0.504882 57.6803 0 56.9914 0 56.1557V21.0373C0 20.2017 0.504882 19.5126 1.11718 19.5126ZM57.8682 33.6157H56.3535V29.4816H57.8682L58.0024 33.6157H57.8682ZM20.6089 13.9711H19.0943V9.83693H20.6089V13.9711ZM19.7818 7.76988H19.0943V6.83163V5.79809H19.8516H22.1934V7.86517H19.8516L19.7818 7.76988ZM23.708 7.86517V5.79809H26.7373V7.86517H23.708ZM28.2573 7.86517V5.79809H31.2866V7.86517H28.2573ZM32.8013 7.86517V5.79809H35.8306V7.86517H32.8013ZM37.3506 7.86517V5.79809H40.3799V7.86517H37.3506ZM41.8945 7.86517V5.79809H44.9238V7.86517H41.8945ZM46.1054 50.1451H48.7588V48.078H46.1054L46.2397 50.1451H46.1054ZM50.2734 50.1451V48.078H53.3027V50.1451H50.4023H50.2734ZM54.8228 50.1451V48.078H57.1108V48.1H57.8682V49.1115V50.1451H57.1108H54.8228ZM57.8682 46.0256H56.3535V41.8914H57.8682L58.0024 46.0256H57.8682ZM57.8682 39.8243H56.3535V35.6901H57.8682L58.0024 39.8243H57.8682ZM64.0449 17.8121C64.0718 17.8121 64.0987 17.8121 64.1201 17.8195C64.2866 17.4236 64.437 17.0058 64.5767 16.566C64.582 16.5587 64.582 16.5513 64.5874 16.544C64.7915 15.8769 64.9526 15.1879 65.0547 14.4696C65.1353 13.9125 65.1889 13.348 65.2051 12.7616H62.7451C62.7022 14.4696 62.3262 16.1482 61.6333 17.8048L64.0449 17.8121ZM63.6152 18.8822H61.1392C60.3872 20.3703 59.3721 21.8363 58.1045 23.2876C58.3033 23.251 58.5019 23.207 58.6953 23.1557C59.2271 23.0091 59.7373 22.7965 60.2315 22.5033C60.731 22.2101 61.1982 21.8656 61.6333 21.4698C62.0684 21.074 62.4658 20.6268 62.8364 20.121C63.1211 19.7325 63.3843 19.3221 63.6152 18.8822ZM55.9883 23.2876C54.7207 21.8363 53.7055 20.3703 52.9536 18.8822H50.4775C50.7139 19.3221 50.9771 19.7325 51.2617 20.121C51.6323 20.6268 52.0298 21.074 52.4648 21.4698C52.8946 21.8656 53.3618 22.2101 53.8667 22.5033C53.8721 22.5107 53.8774 22.5107 53.8828 22.518C54.3716 22.7965 54.8764 23.0164 55.4028 23.1557C55.5962 23.207 55.7949 23.251 55.9937 23.2876H55.9883ZM49.9565 17.8121H52.4487C51.7559 16.1555 51.3799 14.4696 51.3369 12.769H48.877C48.8985 13.3554 48.9468 13.9199 49.0274 14.4769C49.1348 15.2026 49.2906 15.8989 49.5054 16.5733C49.6397 17.0058 49.7901 17.4163 49.9565 17.8121ZM48.877 11.6914H51.3531C51.4443 10.0202 51.8526 8.34163 52.5776 6.64838H49.9565C49.7901 7.0442 49.6397 7.45469 49.5054 7.88717C49.5 7.89449 49.5 7.90182 49.4946 7.90916C49.2906 8.57619 49.1294 9.26521 49.0274 9.9836C48.9468 10.5407 48.8931 11.1051 48.877 11.6914ZM50.4668 5.57819H53.0825C53.8291 4.11218 54.812 2.63883 56.0366 1.15815C55.8164 1.1948 55.6016 1.23878 55.3921 1.29742C54.8603 1.44403 54.3501 1.6566 53.8559 1.9498C53.3564 2.243 52.8892 2.58752 52.4541 2.98334C52.019 3.37916 51.6216 3.8263 51.251 4.33208C50.9663 4.71323 50.7032 5.12373 50.4668 5.57819ZM58.0401 1.15082C59.27 2.63149 60.253 4.10484 60.9942 5.57086H63.6099C63.3735 5.13105 63.1103 4.72057 62.8257 4.33208C62.4551 3.8263 62.0576 3.37916 61.6226 2.98334C61.1928 2.58752 60.7256 2.243 60.2207 1.9498C60.2154 1.94247 60.21 1.94247 60.2046 1.93514C59.7158 1.6566 59.211 1.43669 58.6846 1.29742C58.4697 1.23878 58.2549 1.1948 58.0401 1.15082ZM64.1255 6.64838H61.5044C62.2295 8.34163 62.6377 10.0202 62.729 11.6914H65.2051C65.1836 11.1051 65.1353 10.5407 65.0547 9.9836C64.9473 9.25788 64.7915 8.56153 64.5767 7.88717C64.4424 7.45469 64.292 7.0442 64.1255 6.64838ZM55.2417 0.241893C55.8218 0.0806308 56.4233 0 57.041 0C57.6587 0 58.2549 0.0806308 58.8404 0.241893C59.415 0.395824 59.9683 0.630386 60.5108 0.945578C60.5161 0.945578 60.5269 0.952912 60.5322 0.960236C61.0693 1.27543 61.5796 1.6566 62.0576 2.08907C62.5357 2.52155 62.9761 3.01999 63.3789 3.56975C63.7871 4.1195 64.147 4.72057 64.4639 5.37294C64.7861 6.02532 65.06 6.72168 65.291 7.45469C65.5274 8.20235 65.6992 8.97201 65.8174 9.76369C65.9356 10.5553 65.9946 11.3763 65.9946 12.2193C65.9946 13.0622 65.9356 13.8759 65.8174 14.6748C65.7046 15.4591 65.5328 16.2141 65.3018 16.9545C65.3018 16.9618 65.2964 16.9765 65.291 16.9838C65.06 17.7241 64.7808 18.4132 64.4639 19.0656C64.147 19.7179 63.7817 20.3189 63.3789 20.8687C62.9761 21.4258 62.5357 21.917 62.0576 22.3494C61.5796 22.7893 61.0693 23.1631 60.5322 23.4782C59.9844 23.8008 59.4204 24.0353 58.8404 24.1966C58.2603 24.3578 57.6587 24.4385 57.041 24.4385C56.4233 24.4385 55.8272 24.3578 55.2417 24.1966C54.667 24.0426 54.1137 23.8081 53.5713 23.4929C53.5659 23.4929 53.5552 23.4856 53.5498 23.4782C53.0127 23.1631 52.5025 22.7819 52.0244 22.3494C51.5464 21.917 51.106 21.4185 50.7032 20.8687C50.2949 20.3189 49.9351 19.7179 49.6182 19.0656C49.2959 18.4132 49.022 17.7168 48.791 16.9838C48.5547 16.2361 48.3828 15.4665 48.2647 14.6748C48.1465 13.8832 48.0874 13.0622 48.0874 12.2193C48.0874 11.3763 48.1465 10.5627 48.2647 9.76369C48.3775 8.97935 48.5493 8.22434 48.7803 7.48401C48.7803 7.47667 48.7857 7.46202 48.791 7.45469C49.022 6.71435 49.3013 6.02532 49.6182 5.37294C49.9351 4.72057 50.3003 4.1195 50.7032 3.56975C51.106 3.01266 51.5464 2.52155 52.0244 2.08907C52.5025 1.64927 53.0127 1.27543 53.5498 0.960236C54.0923 0.637717 54.6616 0.403155 55.2417 0.241893ZM57.4331 1.84718V5.57086H60.0327C59.3506 4.33941 58.4858 3.10063 57.4331 1.84718ZM57.4331 6.64838V11.6914H61.9448C61.8427 10.0348 61.3916 8.35629 60.5859 6.64838H57.4331ZM57.4331 12.7616V17.8048H60.7148C61.4937 16.1335 61.9073 14.4549 61.9555 12.7616H57.4331ZM57.4331 18.8822V22.6499C58.5449 21.4038 59.458 20.143 60.167 18.8822H57.4331ZM56.6489 22.6499V18.8822H53.9151C54.6186 20.143 55.5317 21.4038 56.6489 22.6499ZM56.6489 17.8121V12.769H52.1211C52.1694 14.4623 52.5884 16.1409 53.3618 17.8121H56.6489ZM56.6489 11.6914V6.64838H53.4961C52.6904 8.35629 52.2393 10.0348 52.1372 11.6914H56.6489ZM56.6489 5.57819V1.84718C55.5962 3.10063 54.7314 4.33941 54.0493 5.57086H56.6489V5.57819ZM15.4741 59.7841H25.604C25.6308 62.1737 26.3506 64.3141 28.3056 66H12.7725C14.3355 64.4534 15.4795 62.5696 15.4741 59.7841ZM20.5391 52.542C21.3286 52.542 21.9732 53.4216 21.9732 54.4991C21.9732 55.5767 21.3286 56.4562 20.5391 56.4562C19.7495 56.4562 19.105 55.5767 19.105 54.4991C19.105 53.4216 19.7442 52.542 20.5391 52.542ZM3.35694 22.386H37.7158C38.2583 22.386 38.7041 22.9945 38.7041 23.7348V49.9765C38.7041 50.7168 38.2583 51.3252 37.7158 51.3252H3.35694C2.81446 51.3252 2.36865 50.7168 2.36865 49.9765V23.7348C2.36865 22.9872 2.81446 22.386 3.35694 22.386Z" fill="#F5F5F5"/>
</g>
</g>
<defs>
<clipPath id="clip0_1_27">
<rect width="66" height="66" fill="white"/>
</clipPath>
</defs>
</svg>
