<svg width="66" height="66" viewBox="0 0 66 66" fill="none" xmlns="http://www.w3.org/2000/svg">
<g clip-path="url(#clip0_1_3)">
<mask id="mask0_1_3" style="mask-type:luminance" maskUnits="userSpaceOnUse" x="0" y="0" width="66" height="66">
<path d="M66 0H0V66H66V0Z" fill="white"/>
</mask>
<g mask="url(#mask0_1_3)">
<path d="M5.24729 5.12285C4.66721 5.12285 4.19993 4.63736 4.19993 4.03467C4.19993 3.43198 4.66721 2.94648 5.24729 2.94648H33.1286V1.08819C33.1286 0.485499 33.5959 0 34.176 0C34.7561 0 35.2234 0.485499 35.2234 1.08819V2.94648H61.1765C61.7566 2.94648 62.2238 3.43198 62.2238 4.03467C62.2238 4.63736 61.7566 5.12285 61.1765 5.12285H58.7649V32.9135H61.2893C61.8693 32.9135 62.3367 33.399 62.3367 34.0017C62.3367 34.6044 61.8693 35.0899 61.2893 35.0899H35.3684V38.1759C35.4221 38.215 35.4597 38.254 35.4973 38.2931L41.9158 44.6324C42.3293 45.0398 42.3454 45.743 41.9533 46.1671C41.5613 46.5968 40.8845 46.6135 40.4763 46.2062L35.3845 41.1726V46.6916C35.3845 47.2944 34.9172 47.7798 34.3371 47.7798C33.757 47.7798 33.2898 47.2944 33.2898 46.6916V40.9549L27.9778 46.2062C27.5642 46.6135 26.8928 46.6135 26.5007 46.1671C26.1086 45.7374 26.1086 45.0398 26.5383 44.6324L32.9568 38.2931C33.048 38.1982 33.1824 38.1201 33.2951 38.0587V35.0899H19.0725C18.4924 35.0899 18.0251 34.6044 18.0251 34.0017C18.0251 33.399 18.4924 32.9135 19.0725 32.9135H56.6647V5.12285H5.24729ZM41.4484 59.0523C36.781 59.0523 39.8533 59.4318 40.4924 54.1639C41.4431 46.2843 48.6511 46.2843 49.7146 54.1639C50.3967 59.2309 53.3239 59.0523 48.7585 59.0523H46.9377C46.9323 60.3415 46.739 60.9999 48.0281 61.7254C48.6833 62.0937 49.908 62.3727 50.9553 62.7968C52.5505 61.3794 55.3811 62.3113 55.6765 59.7164C55.7195 59.3202 54.8225 57.8135 54.6184 57.088C54.1779 56.357 54.0222 55.2018 54.5002 54.4262C54.6936 54.1192 54.6076 53.0031 54.6076 52.579C54.6076 48.3825 61.6868 48.3825 61.6868 52.579C61.6868 53.1092 61.5686 54.0858 61.8478 54.5043C62.3098 55.2018 62.0734 56.4407 61.6814 57.088C61.429 57.8469 60.4783 59.2867 60.5588 59.7164C61.2463 63.3493 66.0105 59.4597 66.0105 65.9944H52.6311H52.6257H50.4612H49.8811H37.5598H37.5544H25.7219H10.7902C10.7902 59.3481 16.8273 63.0312 17.2893 58.9575C17.3377 58.5111 16.3333 56.8257 16.1023 56.011C15.6081 55.1907 15.4309 53.896 15.9733 53.031C16.1882 52.685 16.0969 51.435 16.0969 50.9607C16.0969 46.2564 24.03 46.2564 24.03 50.9607C24.03 51.5578 23.8957 52.6516 24.2073 53.1147C24.7282 53.896 24.4597 55.2856 24.0192 56.011C23.7399 56.8648 22.6711 58.472 22.7624 58.9575C23.0955 60.7153 27.3117 61.9095 28.7835 62.5569C29.6106 62.116 30.2819 61.5914 30.3518 60.9832C30.3894 60.6651 29.6697 59.4653 29.5085 58.8849C29.1594 58.3045 29.0305 57.3782 29.4172 56.7588C29.5676 56.5132 29.5031 55.6203 29.5031 55.2856C29.5031 51.9372 35.1535 51.9317 35.1535 55.2856C35.1535 55.7096 35.0622 56.4854 35.2824 56.8201C35.6531 57.3782 35.4597 58.3659 35.1482 58.8793C34.9495 59.4876 34.1868 60.6316 34.2512 60.9776C34.6648 63.1763 36.9529 61.9263 38.0324 63.4609C39.053 62.6238 41.0833 62.395 42.3239 61.6249C43.4572 60.9218 43.2639 60.213 43.2585 59.0412L41.4484 59.0523ZM0.0051048 26.0775C-0.145286 23.0473 2.25022 22.2493 5.5051 22.4613L9.61938 27.2214L13.6423 22.5171L23.6164 22.4613C27.3762 22.9077 26.592 27.0094 23.6164 27.1657H17.0906L15.5544 36.7473L14.3943 42.9807C14.0935 44.0131 13.4973 44.6715 12.6164 45.0231L6.94456 45.0622C5.80052 44.8892 5.12913 44.186 4.92503 42.9639L4.04417 37.8019C1.72385 38.0364 0.939674 36.3232 0.692605 33.8566L0.0265892 26.0607L0.0051048 26.0775ZM9.38304 9.49791C12.1706 9.49791 14.4372 11.8529 14.4372 14.7492C14.4372 17.6454 12.1706 20.0003 9.38304 20.0003C6.59544 20.0003 4.32884 17.6454 4.32884 14.7492C4.32884 11.8529 6.59007 9.49791 9.38304 9.49791ZM9.56566 24.9893L6.36448 21.3341L7.29905 20.5584C8.68477 21.1611 10.0706 21.1611 11.4348 20.5584L12.7238 21.3564L9.56566 24.9893Z" fill="#F5F5F5"/>
</g>
</g>
<defs>
<clipPath id="clip0_1_3">
<rect width="66" height="66" fill="white"/>
</clipPath>
</defs>
</svg>
